<svg xmlns="http://www.w3.org/2000/svg" width="14.65" height="16.784" viewBox="0 0 14.65 16.784"><defs><style>.a{fill:#f2f2f2;}</style></defs><g transform="translate(-6 -2.424)"><path class="a" d="M23.845,21a.845.845,0,0,0-.845.845h.563a.282.282,0,0,1,.563,0h.563A.845.845,0,0,0,23.845,21Z" transform="translate(-12.211 -13.343)"/><path class="a" d="M35.845,21a.845.845,0,0,0-.845.845h.563a.282.282,0,0,1,.563,0h.563A.845.845,0,0,0,35.845,21Z" transform="translate(-20.83 -13.343)"/><path class="a" d="M20.086,12.165a2.226,2.226,0,0,0-.175-.871,2.249,2.249,0,0,0,.076-3.26,2.254,2.254,0,0,0-2.155-2.913h-.025a3.1,3.1,0,0,0-3.482-2.671l-1,.132-1-.132A3.1,3.1,0,0,0,8.843,5.122H8.817A2.254,2.254,0,0,0,6.662,8.035a2.249,2.249,0,0,0,.076,3.26,2.226,2.226,0,0,0-.175.871,2.254,2.254,0,0,0,1.321,2.048,2.543,2.543,0,0,0-1.321,2.226v2.488a.282.282,0,0,0,.282.282H19.8a.282.282,0,0,0,.282-.282V16.438a2.543,2.543,0,0,0-1.321-2.226A2.254,2.254,0,0,0,20.086,12.165Zm-3.012,6.48h-7.5a1.97,1.97,0,0,1,3.5-1.8.295.295,0,0,0,.5,0,1.97,1.97,0,0,1,3.5,1.8Zm2.448-2.206v2.206h-1.84a2.534,2.534,0,0,0-4.358-2.44,2.532,2.532,0,0,0-4.358,2.44H7.127V16.438a1.977,1.977,0,0,1,1.468-1.907l3.674-.966a.286.286,0,0,0,.211-.273v-.947a3.572,3.572,0,0,0,1.69,0v.947a.286.286,0,0,0,.211.273l3.671.966A1.977,1.977,0,0,1,19.523,16.438Zm-9.3-7.654V7l3.1-1.293L16.424,7V8.784a3.1,3.1,0,0,1-6.2,0Zm7.607,5.071v.034l-3.1-.814v-.91a3.667,3.667,0,0,0,2.209-2.843,1.4,1.4,0,0,0-.163-2.783L13.432,5.144a.258.258,0,0,0-.214,0L9.871,6.539a1.4,1.4,0,0,0-.163,2.783,3.667,3.667,0,0,0,2.209,2.843v.91l-3.1.814v-.034a1.69,1.69,0,0,1-1.69-1.69,1.668,1.668,0,0,1,.208-.814.285.285,0,0,0-.082-.363,1.685,1.685,0,0,1-.085-2.654.287.287,0,0,0,.082-.324,1.672,1.672,0,0,1-.124-.634,1.69,1.69,0,0,1,1.69-1.69,1.4,1.4,0,0,1,.234.017.28.28,0,0,0,.228-.056.29.29,0,0,0,.1-.211,2.536,2.536,0,0,1,2.868-2.426l1.037.138a.318.318,0,0,0,.073,0L14.4,3.009a2.536,2.536,0,0,1,2.868,2.426A.279.279,0,0,0,17.6,5.7a1.4,1.4,0,0,1,.234-.017,1.69,1.69,0,0,1,1.69,1.69,1.672,1.672,0,0,1-.124.634.287.287,0,0,0,.082.324,1.685,1.685,0,0,1-.085,2.654.285.285,0,0,0-.082.363,1.668,1.668,0,0,1,.208.814A1.69,1.69,0,0,1,17.832,13.855ZM16.987,8.73V7.144a.9.9,0,0,1,.316.194.854.854,0,0,1,.248.6A.843.843,0,0,1,16.987,8.73ZM9.662,7.144V8.733a.845.845,0,0,1-.318-1.392A.873.873,0,0,1,9.662,7.144Z" transform="translate(0)"/><path class="a" d="M29.845,30.282A.282.282,0,0,1,29.563,30H29a.845.845,0,0,0,1.69,0h-.563A.282.282,0,0,1,29.845,30.282Z" transform="translate(-16.52 -19.807)"/></g></svg>