<svg xmlns="http://www.w3.org/2000/svg" width="19.343" height="19.342" viewBox="0 0 19.343 19.342"><defs><style>.a{fill:#fff;fill-rule:evenodd;}</style></defs><path class="a" d="M23.191,23.19a1.209,1.209,0,0,1,1.711,0l4.654,4.654a1.209,1.209,0,0,1-1.709,1.711L23.193,24.9a1.209,1.209,0,0,1,0-1.711Z" transform="translate(-10.567 -10.566)"/><path class="a" d="M7.858,14.507A6.649,6.649,0,1,0,1.209,7.858,6.649,6.649,0,0,0,7.858,14.507Zm7.858-6.649A7.858,7.858,0,1,1,7.858,0a7.858,7.858,0,0,1,7.858,7.858Z"/></svg>