<svg xmlns="http://www.w3.org/2000/svg" width="90" height="90" viewBox="0 0 90 90"><defs><style>.a{fill:transparent;}.b{fill:#722526;}.c{fill:transparent;}.d{fill:transparent;}.e{fill:#be684d;}.f{fill:transparent;}.g{fill:transparent;}.h{fill:transparent;}.i{fill:transparent;}</style></defs><g transform="translate(0 0)"><g transform="translate(0 0)"><path class="a" d="M351.031,232,344,240.438v39.375h28.125V240.438L365.094,232Z" transform="translate(-283.531 -191.219)"/><path class="b" d="M345.406,263.824q-.709,0-1.406-.044v28.169h28.125V252.574l-4.874-5.849A22.506,22.506,0,0,1,345.406,263.824Z" transform="translate(-283.531 -203.355)"/><path class="b" d="M160,392h39.375v8.438a5.625,5.625,0,0,1-5.625,5.625H165.625A5.625,5.625,0,0,1,160,400.438Z" transform="translate(-131.875 -323.094)"/><path class="a" d="M209.75,273.313V272.1a13.929,13.929,0,0,0-9.524-13.214c-3.7-1.234-5.754-5.26-3.053-8.075.585-.61,2.733-2.812,2.733-2.812h-4.219a14.063,14.063,0,0,0-14.062,14.063A14.063,14.063,0,0,0,176,273.313Z" transform="translate(-145.063 -204.406)"/><path class="a" d="M2.03,9.844,8.381,16.2a20.353,20.353,0,0,1,5.933,15.468,13.589,13.589,0,0,0,3.955,10.331L38.156,22.106a13.588,13.588,0,0,0-10.331-3.955,20.352,20.352,0,0,1-15.468-5.934L0,0V7.734Z" transform="translate(0)"/><path class="a" d="M408.438,41.75,405.625,8h-2.812L400,41.75Z" transform="translate(-329.688 -6.594)"/><path class="c" d="M384,200h14.063v5.625H384Z" transform="translate(-316.5 -164.844)"/><circle class="d" cx="1.406" cy="1.406" r="1.406" transform="translate(71.719 26.719)"/><path class="e" d="M107.98,148.247l9.526,9.526,18.247-17.612-5.973-5.973L125.562,130Z" transform="translate(-88.999 -107.148)"/><path class="f" d="M192,472h28.125v5.625H192Z" transform="translate(-158.25 -389.031)"/><circle class="d" cx="1.406" cy="1.406" r="1.406" transform="translate(67.5 43.594)"/><circle class="g" cx="1.406" cy="1.406" r="1.406" transform="translate(63.281 52.031)"/><circle class="h" cx="1.406" cy="1.406" r="1.406" transform="translate(46.406 49.219)"/><path class="b" d="M203.221,317.976A24.609,24.609,0,0,1,176.173,328.8a14.06,14.06,0,0,0-.173,2.189h33.75v-1.21a13.931,13.931,0,0,0-6.528-11.8Z" transform="translate(-145.063 -262.082)"/><path class="b" d="M85.294,132.946l19.887-19.888a13.548,13.548,0,0,0-3.885-2.709,28.065,28.065,0,0,1-19.96,10.081,20.4,20.4,0,0,1,0,2.184A13.589,13.589,0,0,0,85.294,132.946Z" transform="translate(-67.024 -90.952)"/><circle class="i" cx="2.109" cy="2.109" r="2.109" transform="translate(28.125 21.094)"/><circle class="i" cx="1.406" cy="1.406" r="1.406" transform="translate(22.5 22.5)"/><path class="a" d="M269.12,392h-4.96a35.912,35.912,0,0,1-19.541,14.063H263.5a5.625,5.625,0,0,0,5.625-5.625Z" transform="translate(-201.62 -323.094)"/></g><g transform="translate(0 0)"><path d="M366.93,49.086c0-.018,0-.035-.007-.053s-.007-.051-.012-.076-.009-.042-.014-.063-.01-.042-.016-.062-.013-.044-.021-.065-.013-.038-.02-.057-.017-.043-.026-.064-.018-.037-.027-.056-.02-.039-.03-.059-.023-.039-.035-.058-.021-.034-.032-.05-.035-.047-.053-.07-.016-.022-.024-.032l0,0-6.705-8.046V35.156A1.406,1.406,0,0,0,358.5,33.75h-1.519L354.276,1.29a1.41,1.41,0,0,0-1.4-1.29h-2.812a1.41,1.41,0,0,0-1.4,1.29l-.721,8.641a1.407,1.407,0,0,0,2.8.234l.611-7.353h.225l2.578,30.938h-5.382l1.031-12.373a1.406,1.406,0,1,0-2.8-.234L345.956,33.75h-1.519a1.406,1.406,0,0,0-1.406,1.406v5.115l-6.705,8.046a1.406,1.406,0,1,0,2.161,1.8l6.609-7.931h12.745l4.688,5.625h-11.06a1.406,1.406,0,0,0,0,2.813h12.656V87.188h-7.031a1.406,1.406,0,0,0,0,2.813h8.438a1.406,1.406,0,0,0,1.406-1.406V49.219C366.937,49.174,366.935,49.13,366.93,49.086Zm-9.837-9.711h-11.25V36.563h11.25Z" transform="translate(-276.937 0)"/><path d="M402.526,84c.039,0,.079,0,.118,0a1.391,1.391,0,1,0-.118,0Z" transform="translate(-330.705 -66.942)"/><path d="M224.877,345.405a9.433,9.433,0,0,1-4.534-1.221,1.406,1.406,0,1,0-1.394,2.443,12.158,12.158,0,0,0,5.928,1.591,1.406,1.406,0,0,0,0-2.812Z" transform="translate(-179.877 -283.53)"/><path d="M198.406,265.313h-7.035a15.313,15.313,0,0,0-10.482-14.353,4.827,4.827,0,0,1-3.241-3.15,2.677,2.677,0,0,1,.759-2.618c.575-.6,2.7-2.782,2.725-2.8A1.406,1.406,0,0,0,180.125,240h-4.219a15.488,15.488,0,0,0-15.453,14.774,15.565,15.565,0,0,0-5.574,10.539h-1.472A1.406,1.406,0,0,0,152,266.719v8.438a7.043,7.043,0,0,0,5.625,6.891v4.359a1.406,1.406,0,0,0,1.406,1.406h28.125a1.406,1.406,0,0,0,1.406-1.406v-4.359a7.043,7.043,0,0,0,5.625-6.891v-7.031h4.219a1.408,1.408,0,0,1,1.406,1.406v2.813a1.406,1.406,0,0,0,2.813,0v-2.812A4.224,4.224,0,0,0,198.406,265.313Zm-35.719-8.719a1.407,1.407,0,0,0,.563-1.125,12.578,12.578,0,0,1,1.087-5.123c.015.041.028.081.044.122,1.321,3.417,5.433,6.685,9.778,7.771a1.406,1.406,0,0,0,.682-2.729c-3.468-.867-6.838-3.471-7.837-6.057a3.13,3.13,0,0,1,.229-3.048,1.412,1.412,0,0,0,.142-.275,12.607,12.607,0,0,1,8.532-3.317h.888l-.418.433a5.467,5.467,0,0,0-1.459,5.24A7.58,7.58,0,0,0,180,253.628a12.5,12.5,0,0,1,8.558,11.685H157.705A12.726,12.726,0,0,1,162.688,256.594ZM185.75,285H160.438v-2.812H185.75Zm5.625-14.062H163.25a1.406,1.406,0,0,0,0,2.813h28.125v1.406a4.224,4.224,0,0,1-4.219,4.219H159.031a4.223,4.223,0,0,1-4.219-4.219V273.75h2.813a1.406,1.406,0,0,0,0-2.812h-2.812v-2.812h36.563Z" transform="translate(-125.281 -197.813)"/><path d="M31.429,71.814a1.4,1.4,0,0,0,.976-.394L50.652,53.807A1.406,1.406,0,0,0,50.67,51.8L44.7,45.828a1.406,1.406,0,1,0-1.989,1.989l4.961,4.961-2.538,2.449-1.589-1.589a1.406,1.406,0,1,0-1.989,1.989l1.554,1.553L40.569,59.63l-3.242-3.242a1.406,1.406,0,1,0-1.989,1.989l3.207,3.206-7.1,6.853-7.463-7.464,2.494-2.493,3.212,3.212A1.406,1.406,0,1,0,31.677,59.7L28.465,56.49l6.976-6.976,2.135,2.136a1.406,1.406,0,1,0,1.989-1.989L37.43,47.525l4.643-4.643a1.406,1.406,0,0,0,0-1.989,15.015,15.015,0,0,0-11.4-4.365A18.984,18.984,0,0,1,16.263,31L9.531,24.4a1.406,1.406,0,1,0-1.969,2.009l6.723,6.582a21.789,21.789,0,0,0,16.536,6.343,12.209,12.209,0,0,1,8.209,2.609l-13.4,13.4a1.4,1.4,0,0,0-.158.134,1.417,1.417,0,0,0-.134.158l-3.921,3.922a1.383,1.383,0,0,0-.214.1,12.213,12.213,0,0,1-2.561-8.145A21.789,21.789,0,0,0,12.3,34.983L5.945,28.632a1.406,1.406,0,1,0-1.988,1.989l6.351,6.351a18.974,18.974,0,0,1,5.523,14.4A15.018,15.018,0,0,0,20.2,62.77a1.4,1.4,0,0,0,1.779.173L30.434,71.4A1.4,1.4,0,0,0,31.429,71.814Z" transform="translate(-2.921 -19.782)"/><circle cx="1.406" cy="1.406" r="1.406" transform="translate(67.5 47.813)"/><circle cx="1.406" cy="1.406" r="1.406" transform="translate(0 0)"/><circle cx="1.406" cy="1.406" r="1.406" transform="translate(50.625 61.875)"/><path d="M384.438,496h-7.031a1.406,1.406,0,0,0,0,2.813h7.031a1.406,1.406,0,0,0,0-2.812Z" transform="translate(-309.906 -408.813)"/></g></g></svg>