<svg xmlns="http://www.w3.org/2000/svg" width="30" height="30" viewBox="0 0 30 30"><path d="M20,15a5,5,0,0,0-5-5,5,5,0,0,0-5,5,5,5,0,0,0,5,5,5,5,0,0,0,5-5Zm2.695,0A7.668,7.668,0,0,1,15,22.695,7.668,7.668,0,0,1,7.305,15,7.668,7.668,0,0,1,15,7.305,7.668,7.668,0,0,1,22.695,15ZM24.8,6.992a1.8,1.8,0,1,1-3.066-1.269A1.8,1.8,0,0,1,24.8,6.992ZM15,2.695l-1.494-.01q-1.357-.01-2.061,0T9.56,2.743a15.4,15.4,0,0,0-2.012.195,7.762,7.762,0,0,0-1.4.363A5.108,5.108,0,0,0,3.3,6.152a7.838,7.838,0,0,0-.362,1.4,15.4,15.4,0,0,0-.195,2.012q-.048,1.182-.058,1.885t0,2.061Q2.7,14.864,2.7,15t-.01,1.494q-.01,1.358,0,2.061t.058,1.885a15.4,15.4,0,0,0,.195,2.012,7.791,7.791,0,0,0,.362,1.4A5.108,5.108,0,0,0,6.152,26.7a7.838,7.838,0,0,0,1.4.362,15.4,15.4,0,0,0,2.012.195q1.182.048,1.885.058t2.061,0L15,27.3l1.494.01q1.358.01,2.061,0t1.885-.058a15.4,15.4,0,0,0,2.012-.195,7.839,7.839,0,0,0,1.4-.362A5.108,5.108,0,0,0,26.7,23.848a7.838,7.838,0,0,0,.362-1.4,15.4,15.4,0,0,0,.2-2.012q.048-1.182.058-1.885t0-2.061q-.01-1.357-.01-1.494t.01-1.494q.01-1.357,0-2.061t-.058-1.885a15.4,15.4,0,0,0-.2-2.012,7.688,7.688,0,0,0-.363-1.4A5.108,5.108,0,0,0,23.848,3.3a7.838,7.838,0,0,0-1.4-.362,15.4,15.4,0,0,0-2.012-.195q-1.182-.048-1.885-.058t-2.061,0L15,2.7ZM30,15q0,4.472-.1,6.192a9.161,9.161,0,0,1-2.422,6.289A9.161,9.161,0,0,1,21.192,29.9Q19.472,30,15,30t-6.192-.1a9.161,9.161,0,0,1-6.289-2.422A9.161,9.161,0,0,1,.1,21.192Q0,19.472,0,15T.1,8.808A9.161,9.161,0,0,1,2.519,2.519,9.161,9.161,0,0,1,8.808.1Q10.527,0,15,0t6.192.1a9.161,9.161,0,0,1,6.289,2.422A9.161,9.161,0,0,1,29.9,8.808Q30,10.527,30,15Z"/></svg>