<svg xmlns="http://www.w3.org/2000/svg" width="75" height="75" viewBox="0 0 75 75"><defs><style>.a{fill:#722526;}</style></defs><path class="a" d="M70.342,75H4.718a4.471,4.471,0,0,1-3.332-1.391,4.564,4.564,0,0,1-1.355-3.3V51.563A4.53,4.53,0,0,1,1.385,48.23a4.53,4.53,0,0,1,3.332-1.355h9.376a6.673,6.673,0,0,1,2.819.624,3.614,3.614,0,0,1,1.868,1.72l2.454,7.361,2.233,6.7a3.112,3.112,0,0,0,1.758,1.9,9.729,9.729,0,0,0,3.295.44H46.759a8.763,8.763,0,0,0,3.186-.44,3.183,3.183,0,0,0,1.647-1.9Q55.328,52,56.281,49.221q.953-2.344,4.688-2.344h9.376a4.562,4.562,0,0,1,3.295,1.355,4.471,4.471,0,0,1,1.391,3.332V70.314a4.562,4.562,0,0,1-1.355,3.295A4.471,4.471,0,0,1,70.342,75ZM48.077,57.2A5.935,5.935,0,0,1,45.7,59.837a6.653,6.653,0,0,1-3.626,1.1H33.208a6.811,6.811,0,0,1-3.662-1.1A5.9,5.9,0,0,1,27.129,57.2l-5.2-15.015H4.716V4.688A4.53,4.53,0,0,1,6.071,1.355,4.53,4.53,0,0,1,9.4,0H65.654a4.53,4.53,0,0,1,3.332,1.355,4.53,4.53,0,0,1,1.355,3.332v37.5H53.13ZM16.436,32.811h9.376a2.344,2.344,0,0,0,0-4.688H16.436a2.344,2.344,0,0,0,0,4.688ZM35.185,14.062H16.436a2.33,2.33,0,0,0-1.647,3.991,2.257,2.257,0,0,0,1.647.7H35.185a2.33,2.33,0,0,0,1.647-3.991A2.257,2.257,0,0,0,35.185,14.062Zm23.437,0H44.561a2.33,2.33,0,0,0-1.647,3.991,2.257,2.257,0,0,0,1.647.7H58.622a2.33,2.33,0,0,0,1.647-3.991A2.257,2.257,0,0,0,58.622,14.062Zm2.344,16.406a2.379,2.379,0,0,0-2.344-2.344H35.185a2.344,2.344,0,0,0,0,4.688H58.622a2.379,2.379,0,0,0,2.344-2.344Z" transform="translate(-0.03 0)"/></svg>