<svg xmlns="http://www.w3.org/2000/svg" width="69" height="90" viewBox="0 0 69 90"><defs><style>.a{opacity:0.9;}.b{fill:transparent;}.c{fill:#722526;}.d{fill:transparent;}.e{fill:#f7cca9;}.f{fill:#f7cca9;}</style></defs><g class="a" transform="translate(-72 -16)"><path class="b" d="M86,168h54a6,6,0,0,1,6,6v6H80v-6A6,6,0,0,1,86,168Z" transform="translate(-6.5 -123.5)"/><path class="c" d="M80,216h66v45H80Z" transform="translate(-6.5 -162.5)"/><path class="b" d="M140,462H86a3,3,0,0,1-2.4-1.2L80,456h66l-3.6,4.8A3,3,0,0,1,140,462Z" transform="translate(-6.5 -357.5)"/><path class="b" d="M120,104h51v12H120Z" transform="translate(-39 -71.5)"/><path class="d" d="M128,39s1.508-9.369,10.5-9c15.311.628,15-6,24-6,12,0,13.5,15,13.5,15Z" transform="translate(-45.5 -6.5)"/><path class="e" d="M183,330.5V335l-7.5,3v-4.5H174a3,3,0,0,1-3-3l-3-1.5,1.5-4.5V320A26.928,26.928,0,0,0,183,330.5Z" transform="translate(-78 -247)"/><path class="f" d="M207.5,256v16.5s-4.5-3-10.5,3c-3.825,3.825-7.5,3-7.5,3A26.929,26.929,0,0,1,176,268s0-7.5,10.5-7.5S204.5,259,207.5,256Z" transform="translate(-84.5 -195)"/><path d="M137.1,104.2l3.6-4.8a1.5,1.5,0,0,0,.3-.9h0v-48a7.508,7.508,0,0,0-7.5-7.5V32.5A1.5,1.5,0,0,0,132,31h-.212a25.8,25.8,0,0,0-2.2-6.671C126.867,18.88,122.513,16,117,16a16.75,16.75,0,0,0-9.081,2.719C104.732,20.5,101.437,22.344,93.062,22a10.782,10.782,0,0,0-9.939,5.04,15.048,15.048,0,0,0-1.8,3.96H81a1.5,1.5,0,0,0-1.5,1.5V43A7.508,7.508,0,0,0,72,50.5v48h0a1.5,1.5,0,0,0,.3.9l3.6,4.8a4.522,4.522,0,0,0,3.6,1.8h54A4.521,4.521,0,0,0,137.1,104.2ZM92.939,25c9.225.379,13.227-1.862,16.445-3.661C111.719,20.031,113.563,19,117,19c4.338,0,7.66,2.221,9.873,6.6a22.551,22.551,0,0,1,1.854,5.4H84.467C85.329,28.645,87.568,24.776,92.939,25ZM82.5,40H111a1.5,1.5,0,0,0,0-3H82.5V34h48v3H117a1.5,1.5,0,0,0,0,3h13.5v3h-48ZM75,50.5A4.505,4.505,0,0,1,79.5,46h54a4.505,4.505,0,0,1,4.5,4.5V52H75ZM75,97V55h63V97Zm3.3,5.4L76.5,100h60l-1.8,2.4a1.506,1.506,0,0,1-1.2.6h-54A1.507,1.507,0,0,1,78.3,102.4Z" transform="translate(0)"/><path d="M245.438,288.439C243.578,290.3,237.74,291,234.5,291c-1.406,0-8.52.185-10.342,3.829a1.5,1.5,0,1,0,2.683,1.342c.737-1.475,5.006-2.167,7.658-2.171.985,0,9.718-.1,13.061-3.439a1.5,1.5,0,0,0-2.121-2.122Z" transform="translate(-123.499 -221)"/><path d="M195.331,264.752c-.225-.15-5.6-3.6-12.393,3.188-2.906,2.906-5.584,2.673-6.059,2.6a25.739,25.739,0,0,1-12.341-9.43,6.008,6.008,0,0,1,1-2.5c1.445-2.064,4.122-3.11,7.959-3.11,11.361,0,18.783-1.662,22.061-4.939a1.5,1.5,0,0,0-2.121-2.122c-1.517,1.517-6.123,4.061-19.939,4.061-3.35,0-7.877.762-10.416,4.39a8.6,8.6,0,0,0-1.583,4.61v4.256l-1.423,4.269a1.5,1.5,0,0,0,.752,1.816l2.278,1.139a4.508,4.508,0,0,0,4.392,3.52v3a1.5,1.5,0,0,0,2.057,1.393l7.5-3A1.5,1.5,0,0,0,178,276.5v-2.952a11.071,11.071,0,0,0,7.061-3.488c4.978-4.978,8.479-2.892,8.626-2.8l-.019-.012a1.5,1.5,0,1,0,1.664-2.5ZM175,275.484l-4.5,1.8V275a1.5,1.5,0,0,0-1.5-1.5h-1.5A1.5,1.5,0,0,1,166,272a1.5,1.5,0,0,0-.829-1.342l-1.836-.919,1.088-3.266A1.5,1.5,0,0,0,164.5,266v-.151a28.1,28.1,0,0,0,10.5,7.208Z" transform="translate(-71.499 -188.5)"/></g></svg>