<svg xmlns="http://www.w3.org/2000/svg" width="90" height="89.983" viewBox="0 0 90 89.983"><defs><style>.a{fill:#722526;}.b{fill:#f1af43;}</style></defs><g transform="translate(-1 -1)"><rect class="a" width="8.357" height="7.071" transform="translate(65.002 6.781)"/><path class="b" d="M51.877,25A12.89,12.89,0,0,0,39,37.876V66.491H64.753V37.876A12.89,12.89,0,0,0,51.877,25Z" transform="translate(17.645 11.615)"/><path class="a" d="M11,52v4.292a2.864,2.864,0,0,0,2.861,2.861h8.584a2.864,2.864,0,0,0,2.861-2.861V52Z" transform="translate(4.553 23.245)"/><path class="b" d="M19.446,49.2A11.459,11.459,0,0,1,8,37.753V23.446a11.446,11.446,0,1,1,22.892,0V37.753A11.459,11.459,0,0,1,19.446,49.2Z" transform="translate(3.015 5.128)"/><g transform="translate(1 1)"><path d="M71.088,24.221H67.343V18.416H64.481V6.805A5.77,5.77,0,0,0,58.758,1H50.174a5.77,5.77,0,0,0-5.723,5.805V18.416H41.59v5.805H37.844l-4.856,9.852,2.674,52.9a4.34,4.34,0,0,0,4.281,4.011H68.991a4.348,4.348,0,0,0,4.282-4.052l2.653-52.476.019-.382Zm-9.469,0v-2.9h2.861v2.9Zm-8.584-2.9v2.9H50.174v-2.9Zm2.861,0h2.861v2.9H55.9ZM50.174,3.9h8.584a2.885,2.885,0,0,1,2.861,2.9v5.805H47.312V6.805A2.885,2.885,0,0,1,50.174,3.9ZM47.312,15.513H61.62v2.9H47.312Zm-2.861,5.805h2.861v2.9H44.451Zm-4.839,5.805H69.32l2.861,5.805H68.773v2.9h4.218L70.936,76.469H38L35.941,35.832H65.912v-2.9H36.751ZM68.989,88.08H39.943a1.438,1.438,0,0,1-1.424-1.3l-.376-7.41H70.788l-.372,7.371A1.446,1.446,0,0,1,68.989,88.08Z" transform="translate(14.056 -1)"/><path d="M47.292,36.584A4.292,4.292,0,1,0,43,32.292,4.3,4.3,0,0,0,47.292,36.584Zm0-5.723a1.431,1.431,0,1,1-1.431,1.431A1.432,1.432,0,0,1,47.292,30.861Z" transform="translate(18.049 11.246)"/><path d="M51.292,36v2.861a1.431,1.431,0,1,1-1.431,1.431H47A4.292,4.292,0,1,0,51.292,36Z" transform="translate(19.863 14.874)"/><rect width="3.214" height="3.214" transform="translate(60.679 59.37)"/><rect width="3.214" height="3.214" transform="translate(71.119 65.242)"/><rect width="2.571" height="2.571" transform="translate(63.935 69.801)"/><path d="M1.007,11.3,6.574,67.776a2.883,2.883,0,0,0-2.713,2.888v2.9a2.885,2.885,0,0,0,2.861,2.9V86.629a4.329,4.329,0,0,0,4.292,4.354H33.907A4.329,4.329,0,0,0,38.2,86.629V76.469a2.885,2.885,0,0,0,2.861-2.9v-2.9a2.883,2.883,0,0,0-2.713-2.888l5.574-56.616V1H1Zm31.469-1.6V3.9h2.861V9.708Zm-2.861,0H26.753V3.9h2.861Zm-5.723,0H21.03V3.9h2.861Zm-5.723,0H15.307V3.9h2.861Zm-5.723,0H9.584V3.9h2.861Zm28.464,2.9L36.046,61.956h-5v2.9h4.714l-.286,2.9H9.448l-.286-2.9H28.184v-2.9H8.875L4,12.611ZM35.337,86.629a1.443,1.443,0,0,1-1.431,1.451H11.015a1.443,1.443,0,0,1-1.431-1.451V76.469H35.337ZM6.723,73.567v-2.9H38.2v2.9ZM41.066,9.708H38.2V3.9h2.863ZM6.723,3.9V9.708H3.861V3.9Z" transform="translate(-1 -1)"/><path d="M17.723,38.595A5.723,5.723,0,0,0,22.3,29.438l-4.578-6.1-4.58,6.1a5.724,5.724,0,0,0,4.58,9.157Zm-2.291-7.44L17.723,28.1l2.289,3.052a2.861,2.861,0,1,1-4.58,0Z" transform="translate(3.998 9.175)"/><rect width="3.214" height="3.214" transform="translate(20.226 21.527)"/><rect width="3.214" height="3.214" transform="translate(20.226 27.399)"/></g></g></svg>