<svg xmlns="http://www.w3.org/2000/svg" width="19.576" height="19.576" viewBox="0 0 19.576 19.576"><defs><style>.a{fill:#f2f2f2;}</style></defs><path class="a" d="M18.352,11.011H6.117V8.564H18.352a1.224,1.224,0,0,1,0,2.447Zm0-7.341H6.117V1.223H18.352a1.176,1.176,0,0,1,.86.363,1.187,1.187,0,0,1,.363.87,1.155,1.155,0,0,1-.363.86,1.192,1.192,0,0,1-.86.353ZM4.282,19.576H.612a.588.588,0,0,1-.43-.182A.588.588,0,0,1,0,18.964v-3.67a.588.588,0,0,1,.182-.43.588.588,0,0,1,.43-.182h3.67a.62.62,0,0,1,.612.612v3.67a.62.62,0,0,1-.612.612Zm0-7.341H.612a.588.588,0,0,1-.43-.182A.588.588,0,0,1,0,11.623V7.953a.588.588,0,0,1,.182-.43.588.588,0,0,1,.43-.182h3.67a.62.62,0,0,1,.612.612v3.67a.62.62,0,0,1-.612.612Zm0-7.341H.612a.588.588,0,0,1-.43-.182A.588.588,0,0,1,0,4.282V.612A.588.588,0,0,1,.182.182.588.588,0,0,1,.612,0h3.67a.588.588,0,0,1,.43.182.588.588,0,0,1,.182.43v3.67a.62.62,0,0,1-.612.612ZM19.576,17.129a1.241,1.241,0,0,1-1.223,1.223H6.117V15.905H18.352a1.241,1.241,0,0,1,1.223,1.223Z"/></svg>