<svg xmlns="http://www.w3.org/2000/svg" width="11.911" height="16.676" viewBox="0 0 11.911 16.676"><defs><style>.a{fill:#f2f2f2;}</style></defs><g transform="translate(-6.75 -2.25)"><path class="a" d="M14.294,3.441a2.978,2.978,0,1,1-2.978,2.978,2.978,2.978,0,0,1,2.978-2.978m0-1.191a4.169,4.169,0,1,0,4.169,4.169A4.169,4.169,0,0,0,14.294,2.25Z" transform="translate(-1.588)"/><path class="a" d="M18.661,27.4H17.47V24.419a2.978,2.978,0,0,0-2.978-2.978H10.919a2.978,2.978,0,0,0-2.978,2.978V27.4H6.75V24.419a4.169,4.169,0,0,1,4.169-4.169h3.573a4.169,4.169,0,0,1,4.169,4.169Z" transform="translate(0 -8.471)"/></g></svg>