<svg xmlns="http://www.w3.org/2000/svg" width="75" height="75.004" viewBox="0 0 75 75.004"><defs><style>.a{fill:#f1af43;fill-rule:evenodd;}</style></defs><path class="a" d="M47.194,4.08a13.55,13.55,0,0,0-19.382,0L24.9,7.07l-4.171-.052A13.55,13.55,0,0,0,7.018,20.726L7.063,24.9,4.082,27.812a13.55,13.55,0,0,0,0,19.382l2.986,2.915L7.015,54.28A13.55,13.55,0,0,0,20.724,67.989l4.171-.046,2.915,2.982a13.55,13.55,0,0,0,19.382,0l2.915-2.986,4.171.052A13.55,13.55,0,0,0,67.986,54.283l-.046-4.171L70.922,47.2a13.55,13.55,0,0,0,0-19.382L67.936,24.9l.052-4.171A13.55,13.55,0,0,0,54.28,7.02l-4.171.046L47.194,4.084ZM48.54,32.134a2.347,2.347,0,1,0-3.319-3.319L32.815,41.222l-5.374-5.378a2.347,2.347,0,0,0-3.319,3.319L31.154,46.2a2.344,2.344,0,0,0,3.319,0L48.538,32.132Z" transform="translate(-0.002)"/></svg>